<svg xmlns="http://www.w3.org/2000/svg" width="143" height="20.858"><defs><clipPath id="prefix__clip-path"><path id="prefix__Path_8457" fill="none" d="M0-22.691h143v-20.858H0z" data-name="Path 8457" transform="translate(0 43.549)"/></clipPath><style>.prefix__cls-3{fill:#0c0c0c}.prefix__cls-4{fill:#67bf1b}</style></defs><g id="prefix__Group_4007" data-name="Group 4007" transform="translate(0 43.549)"><g id="prefix__Group_4006" clip-path="url(#prefix__clip-path)" data-name="Group 4006" transform="translate(0 -43.549)"><g id="prefix__Group_3997" data-name="Group 3997"><path id="prefix__Path_8448" d="M-19.483-17.45l-2.032-1.116a.553.553 0 00-.726.175 5.823 5.823 0 01-2.029 1.83 5.589 5.589 0 01-2.751.7 6.86 6.86 0 01-2.7-.528 6.455 6.455 0 01-2.15-1.477 6.873 6.873 0 01-1.43-2.28 8.008 8.008 0 01-.52-2.919 7.97 7.97 0 01.52-2.932 6.9 6.9 0 011.43-2.267 6.466 6.466 0 012.15-1.477 6.867 6.867 0 012.7-.528 5.508 5.508 0 012.747.715 6.091 6.091 0 012.037 1.823.552.552 0 00.725.169l2-1.116a.554.554 0 00.271-.362.552.552 0 00-.09-.443 10.74 10.74 0 00-1.373-1.57 9.19 9.19 0 00-1.737-1.28 8.856 8.856 0 00-2.107-.855 9.641 9.641 0 00-2.475-.3 10.878 10.878 0 00-4.055.755 10 10 0 00-3.3 2.137 9.934 9.934 0 00-2.213 3.3 10.938 10.938 0 00-.8 4.235 10.932 10.932 0 00.8 4.235 9.922 9.922 0 002.213 3.3 9.975 9.975 0 003.3 2.136 10.873 10.873 0 004.056.755 8.71 8.71 0 004.6-1.154 10.908 10.908 0 003.12-2.85.553.553 0 00.095-.447.554.554 0 00-.274-.366" class="prefix__cls-3" data-name="Path 8448" transform="translate(37.392 33.491)"/></g><g id="prefix__Group_3998" data-name="Group 3998" transform="translate(19.914)"><path id="prefix__Path_8449" d="M-18.807-3.258a9.325 9.325 0 00-3.178-2.207 10.359 10.359 0 00-4.082-.788 10.347 10.347 0 00-4.081.789 9.319 9.319 0 00-3.178 2.206A10.053 10.053 0 00-35.372.057a11.52 11.52 0 00-.728 4.119 11.523 11.523 0 00.728 4.124 10.053 10.053 0 002.045 3.316 9.314 9.314 0 003.178 2.206 10.364 10.364 0 004.081.788 10.351 10.351 0 004.082-.789 9.317 9.317 0 003.178-2.206A10.061 10.061 0 00-16.762 8.3a11.531 11.531 0 00.723-4.119 11.525 11.525 0 00-.723-4.124 10.054 10.054 0 00-2.045-3.315m-7.26 14.639a6.484 6.484 0 01-2.678-.538 5.884 5.884 0 01-2.03-1.492 6.729 6.729 0 01-1.3-2.277 8.9 8.9 0 01-.457-2.9 9.021 9.021 0 01.457-2.913 6.569 6.569 0 011.292-2.272 6 6 0 012.037-1.479 6.494 6.494 0 012.678-.538 6.383 6.383 0 012.662.537 6.019 6.019 0 012.02 1.481 6.769 6.769 0 011.308 2.277 8.8 8.8 0 01.47 2.909 8.672 8.672 0 01-.469 2.893 6.95 6.95 0 01-1.311 2.281 5.923 5.923 0 01-2.018 1.493 6.377 6.377 0 01-2.662.537" class="prefix__cls-3" data-name="Path 8449" transform="translate(36.096 6.253)"/></g><g id="prefix__Group_3999" data-name="Group 3999" transform="translate(42.545 .315)"><path id="prefix__Path_8450" d="M-17.916 0h-2.376a.553.553 0 00-.554.554v7.661H-30.9V.554A.554.554 0 00-31.456 0h-2.376a.553.553 0 00-.553.554v19.093a.553.553 0 00.553.553h2.376a.554.554 0 00.554-.553v-8.206h10.057v8.206a.553.553 0 00.554.553h2.376a.554.554 0 00.554-.553V.554A.554.554 0 00-17.916 0" class="prefix__cls-3" data-name="Path 8450" transform="translate(34.385)"/></g><g id="prefix__Group_4000" data-name="Group 4000" transform="translate(62.794 .315)"><path id="prefix__Path_8451" d="M-15.174-3.509a.554.554 0 00.554-.554V-6.18a.554.554 0 00-.554-.554h-13.4a.553.553 0 00-.553.554v19.093a.554.554 0 00.553.554h13.4a.554.554 0 00.554-.554v-2.119a.554.554 0 00-.554-.553h-10.465V4.764h9.823a.554.554 0 00.554-.554V2.092a.554.554 0 00-.554-.553h-9.823v-5.048z" class="prefix__cls-3" data-name="Path 8451" transform="translate(29.122 6.734)"/></g><g id="prefix__Group_4001" data-name="Group 4001" transform="translate(100.092 .315)"><path id="prefix__Path_8452" d="M-3.789-21.372v-19.093a.553.553 0 00-.554-.554h-2.375a.554.554 0 00-.554.554v19.093a.554.554 0 00.554.554h2.376a.554.554 0 00.554-.554" class="prefix__cls-3" data-name="Path 8452" transform="translate(7.272 41.019)"/></g><g id="prefix__Group_4002" data-name="Group 4002" transform="translate(106.286 .315)"><path id="prefix__Path_8453" d="M-17.287 0h-15.338a.553.553 0 00-.553.554v2.118a.553.553 0 00.553.554h5.925v16.421a.553.553 0 00.554.553h2.38a.553.553 0 00.553-.553V3.225h5.926a.554.554 0 00.554-.554V.554A.554.554 0 00-17.287 0" class="prefix__cls-3" data-name="Path 8453" transform="translate(33.178)"/></g><g id="prefix__Group_4003" data-name="Group 4003" transform="translate(124.491 .315)"><path id="prefix__Path_8454" d="M-20.065-.32a.554.554 0 00-.49-.295h-2.777a.553.553 0 00-.46.246l-5.464 8.183-5.464-8.183a.553.553 0 00-.46-.246h-2.777a.553.553 0 00-.489.295.554.554 0 00.032.57l7.4 10.88v7.9a.554.554 0 00.554.554h2.4a.554.554 0 00.553-.554v-7.9L-20.1.25a.554.554 0 00.032-.57" class="prefix__cls-3" data-name="Path 8454" transform="translate(38.51 .615)"/></g><g id="prefix__Group_4004" data-name="Group 4004" transform="translate(79.691 .315)"><path id="prefix__Path_8455" d="M-16.7-2.805l.568-1.923a.511.511 0 00-.49-.656h-7.961a7.331 7.331 0 00-7.448 7.829A7.254 7.254 0 00-24.815 9.1h2.759a1.547 1.547 0 001.538-1.2A1.51 1.51 0 00-22 6.09h-2.651a4.34 4.34 0 01-4.387-3.957 4.234 4.234 0 014.22-4.5l7.549-.015a.588.588 0 00.562-.421" class="prefix__cls-4" data-name="Path 8455" transform="translate(32.06 5.384)"/></g><g id="prefix__Group_4005" data-name="Group 4005" transform="translate(81.111 6.026)"><path id="prefix__Path_8456" d="M-9.483 0h-2.775a1.535 1.535 0 00-1.518 1.191A1.51 1.51 0 00-12.3 3.015h2.669a4.328 4.328 0 014.367 3.939 4.234 4.234 0 01-4.219 4.52h-7.635a.484.484 0 00-.464.347l-.6 2.034a.5.5 0 00.475.634h8.03A7.4 7.4 0 00-2.238 7.12 7.253 7.253 0 00-9.483 0" class="prefix__cls-4" data-name="Path 8456" transform="translate(18.199)"/></g></g></g></svg>